{
  "accessors": [
    {
      "bufferView": 2,
      "componentType": 5126,
      "count": 4,
      "max": [167.02890014648438, 167.02890014648438, 0],
      "min": [-167.02890014648438, -167.02890014648438, 0],
      "type": "VEC3"
    },
    {
      "bufferView": 2,
      "byteOffset": 48,
      "componentType": 5126,
      "count": 4,
      "max": [0, 0, 1],
      "min": [0, 0, 1],
      "type": "VEC3"
    },
    {
      "bufferView": 3,
      "componentType": 5126,
      "count": 4,
      "max": [1, 2.3841863594498136e-7, 0, 1],
      "min": [1, 1.8270841906087298e-7, 0, 1],
      "type": "VEC4"
    },
    {
      "bufferView": 1,
      "componentType": 5126,
      "count": 4,
      "max": [1, 1],
      "min": [2.9802322387695312e-8, 2.9802322387695312e-8],
      "type": "VEC2"
    },
    {
      "bufferView": 0,
      "componentType": 5125,
      "count": 6,
      "max": [3],
      "min": [0],
      "type": "SCALAR"
    },
    {
      "bufferView": 2,
      "byteOffset": 96,
      "componentType": 5126,
      "count": 17502,
      "max": [32.36279296875, 39.406394958496094, 72.283157348632812],
      "min": [-32.57513427734375, -39.406398773193359, 17.056589126586914],
      "type": "VEC3"
    },
    {
      "bufferView": 2,
      "byteOffset": 210120,
      "componentType": 5126,
      "count": 17502,
      "max": [1, 0.99996703863143921, 0.99999696016311646],
      "min": [-1, -0.99999827146530151, -0.99999994039535522],
      "type": "VEC3"
    },
    {
      "bufferView": 3,
      "byteOffset": 64,
      "componentType": 5126,
      "count": 17502,
      "max": [1, 0.9996454119682312, 0.9999920129776001, 1],
      "min": [-1, -0.99999767541885376, -1, -1],
      "type": "VEC4"
    },
    {
      "bufferView": 1,
      "byteOffset": 32,
      "componentType": 5126,
      "count": 17502,
      "max": [0.99223017692565918, 0.98891377449035645],
      "min": [0.0040720985271036625, 0.028493039309978485],
      "type": "VEC2"
    },
    {
      "bufferView": 1,
      "byteOffset": 140048,
      "componentType": 5126,
      "count": 17502,
      "max": [4.9899997711181641, 4.9868388175964355],
      "min": [0.010000000707805157, 0.010000000707805157],
      "type": "VEC2"
    },
    {
      "bufferView": 1,
      "byteOffset": 280064,
      "componentType": 5126,
      "count": 17502,
      "max": [0.99223017692565918, 0.98891377449035645],
      "min": [0.0040720985271036625, 0.028493039309978485],
      "type": "VEC2"
    },
    {
      "bufferView": 0,
      "byteOffset": 24,
      "componentType": 5125,
      "count": 97944,
      "max": [17501],
      "min": [0],
      "type": "SCALAR"
    },
    {
      "bufferView": 2,
      "byteOffset": 420144,
      "componentType": 5126,
      "count": 2312,
      "max": [40.136024475097656, 35.430595397949219, 52.553192138671875],
      "min": [-40.136024475097656, -30.811483383178711, -0.077754974365234375],
      "type": "VEC3"
    },
    {
      "bufferView": 2,
      "byteOffset": 447888,
      "componentType": 5126,
      "count": 2312,
      "max": [0.99998635053634644, 0.99989396333694458, 0.99860906600952148],
      "min": [-0.99998629093170166, -0.99999946355819702, -1],
      "type": "VEC3"
    },
    {
      "bufferView": 3,
      "byteOffset": 280096,
      "componentType": 5126,
      "count": 2312,
      "max": [1, 0.99994421005249023, 0.99999946355819702, 1],
      "min": [-1, -0.99999892711639404, -0.99428129196166992, 1],
      "type": "VEC4"
    },
    {
      "bufferView": 1,
      "byteOffset": 420080,
      "componentType": 5126,
      "count": 2312,
      "max": [0.99500000476837158, 0.99280065298080444],
      "min": [0.004999999888241291, 0.004999999888241291],
      "type": "VEC2"
    },
    {
      "bufferView": 1,
      "byteOffset": 438576,
      "componentType": 5126,
      "count": 2312,
      "max": [0.99000000953674316, 0.98368209600448608],
      "min": [0.0099999997764825821, 0.0099999997764825821],
      "type": "VEC2"
    },
    {
      "bufferView": 1,
      "byteOffset": 457072,
      "componentType": 5126,
      "count": 2312,
      "max": [0.99500000476837158, 0.99280065298080444],
      "min": [0.004999999888241291, 0.004999999888241291],
      "type": "VEC2"
    },
    {
      "bufferView": 0,
      "byteOffset": 391800,
      "componentType": 5125,
      "count": 10176,
      "max": [2311],
      "min": [0],
      "type": "SCALAR"
    }
  ],
  "asset": {
    "extras": {
      "author": "MADE.COM (https://sketchfab.com/made-it)",
      "license": "CC-BY-NC-4.0 (http://creativecommons.org/licenses/by-nc/4.0/)",
      "source": "https://sketchfab.com/3d-models/lars-accent-chair-diego-grey-8e738da142ba424a83f69d6c9578fb8c",
      "title": "Lars Accent Chair, Diego Grey"
    },
    "generator": "Sketchfab-4.47.0",
    "version": "2.0"
  },
  "bufferViews": [
    {
      "buffer": 0,
      "byteLength": 432504,
      "byteOffset": 0,
      "name": "floatBufferViews",
      "target": 34963
    },
    {
      "buffer": 0,
      "byteLength": 475568,
      "byteOffset": 432504,
      "byteStride": 8,
      "name": "floatBufferViews",
      "target": 34962
    },
    {
      "buffer": 0,
      "byteLength": 475632,
      "byteOffset": 908072,
      "byteStride": 12,
      "name": "floatBufferViews",
      "target": 34962
    },
    {
      "buffer": 0,
      "byteLength": 317088,
      "byteOffset": 1383704,
      "byteStride": 16,
      "name": "floatBufferViews",
      "target": 34962
    }
  ],
  "buffers": [
    {
      "byteLength": 1700792,
      "uri": "DiegoGrey.bin"
    }
  ],
  "images": [
    {
      "uri": "texturesDiegoGrey/WOOD_baseColor.jpeg"
    },
    {
      "uri": "texturesDiegoGrey/FABRIC_metallicRoughness.png"
    },
    {
      "uri": "texturesDiegoGrey/FABRIC_baseColor.jpeg"
    },
    {
      "uri": "texturesDiegoGrey/FLOOR_baseColor.png"
    }
  ],
  "materials": [
    {
      "alphaMode": "BLEND",
      "doubleSided": true,
      "emissiveFactor": [0, 0, 0],
      "name": "FLOOR",
      "pbrMetallicRoughness": {
        "baseColorFactor": [0, 0, 0, 1],
        "baseColorTexture": {
          "index": 3,
          "texCoord": 0
        },
        "metallicFactor": 0,
        "roughnessFactor": 1
      }
    },
    {
      "doubleSided": true,
      "emissiveFactor": [0, 0, 0],
      "name": "FABRIC",
      "occlusionTexture": {
        "index": 1,
        "strength": 0.50171493899999997,
        "texCoord": 0
      },
      "pbrMetallicRoughness": {
        "baseColorFactor": [1, 1, 1, 1],
        "baseColorTexture": {
          "index": 2,
          "texCoord": 0
        },
        "metallicFactor": 0,
        "roughnessFactor": 0.89297135959999996
      }
    },
    {
      "doubleSided": true,
      "emissiveFactor": [0, 0, 0],
      "name": "WOOD",
      "pbrMetallicRoughness": {
        "baseColorFactor": [1, 1, 1, 1],
        "baseColorTexture": {
          "index": 0,
          "texCoord": 0
        },
        "metallicFactor": 0,
        "roughnessFactor": 0.89297135959999996
      }
    }
  ],
  "meshes": [
    {
      "name": "Plane001_FLOOR_0",
      "primitives": [
        {
          "attributes": {
            "NORMAL": 1,
            "POSITION": 0,
            "TANGENT": 2,
            "TEXCOORD_0": 3
          },
          "indices": 4,
          "material": 0,
          "mode": 4
        }
      ]
    },
    {
      "name": "Lars_Accent_Chair_FABRIC_0",
      "primitives": [
        {
          "attributes": {
            "NORMAL": 6,
            "POSITION": 5,
            "TANGENT": 7,
            "TEXCOORD_0": 8,
            "TEXCOORD_1": 9,
            "TEXCOORD_2": 10
          },
          "indices": 11,
          "material": 1,
          "mode": 4
        }
      ]
    },
    {
      "name": "Lars_Accent_Chair_WOOD_0",
      "primitives": [
        {
          "attributes": {
            "NORMAL": 13,
            "POSITION": 12,
            "TANGENT": 14,
            "TEXCOORD_0": 15,
            "TEXCOORD_1": 16,
            "TEXCOORD_2": 17
          },
          "indices": 18,
          "material": 2,
          "mode": 4
        }
      ]
    }
  ],
  "nodes": [
    {
      "children": [1],
      "name": "RootNode (gltf orientation matrix)",
      "rotation": [-0.70710678118654746, -0, -0, 0.70710678118654757]
    },
    {
      "children": [2],
      "name": "RootNode (model correction matrix)"
    },
    {
      "children": [3],
      "matrix": [1, 0, 0, 0, 0, 0, 1, 0, 0, -1, 0, 0, 0, 0, 0, 1],
      "name": "9cbb4a09d9ec410fb757a7f9b122a6e9.fbx"
    },
    {
      "children": [4, 6],
      "name": "RootNode"
    },
    {
      "children": [5],
      "matrix": [
        1, 0, 0, 0, 0, 2.2204460492503131e-16, -1, 0, 0, 1,
        2.2204460492503131e-16, 0, 0, 0, 0, 1
      ],
      "name": "Plane001"
    },
    {
      "mesh": 0,
      "name": "Plane001_FLOOR_0"
    },
    {
      "children": [7, 8],
      "matrix": [
        1, 0, 0, 0, 0, 2.2204460492503131e-16, -1, 0, 0, 1,
        2.2204460492503131e-16, 0, 0, 0.16299247741699219, 0, 1
      ],
      "name": "Lars_Accent_Chair"
    },
    {
      "mesh": 1,
      "name": "Lars_Accent_Chair_FABRIC_0"
    },
    {
      "mesh": 2,
      "name": "Lars_Accent_Chair_WOOD_0"
    }
  ],
  "samplers": [
    {
      "magFilter": 9729,
      "minFilter": 9987,
      "wrapS": 10497,
      "wrapT": 10497
    }
  ],
  "scene": 0,
  "scenes": [
    {
      "name": "OSG_Scene",
      "nodes": [0]
    }
  ],
  "textures": [
    {
      "sampler": 0,
      "source": 0
    },
    {
      "sampler": 0,
      "source": 1
    },
    {
      "sampler": 0,
      "source": 2
    },
    {
      "sampler": 0,
      "source": 3
    }
  ]
}
